<svg width="1280" height="720" xmlns="http://www.w3.org/2000/svg" xmlns:xlink="http://www.w3.org/1999/xlink" overflow="hidden"><defs><clipPath id="clip0"><rect x="0" y="0" width="1280" height="720"/></clipPath></defs><g clip-path="url(#clip0)"><rect x="0" y="0" width="1280" height="720" fill="#FFFFFF"/><rect x="217.5" y="225.5" width="193" height="203" stroke="#000000" stroke-width="1.33333" stroke-miterlimit="8" fill="none"/><rect x="409.5" y="225.5" width="108" height="97" stroke="#000000" stroke-width="1.33333" stroke-miterlimit="8" fill="none"/><rect x="409.5" y="322.5" width="108" height="106" stroke="#000000" stroke-width="1.33333" stroke-miterlimit="8" fill="none"/><path d="M218.15 398.503C229.746 398.309 239.304 407.553 239.497 419.15 239.498 419.179 239.498 419.208 239.498 419.238L218.5 419.5Z" stroke="#2F528F" stroke-width="1.33333" stroke-miterlimit="8" fill="none" fill-rule="evenodd"/><path d="M410.15 295.503C421.746 295.309 431.304 304.553 431.497 316.15 431.498 316.179 431.498 316.208 431.498 316.238L410.5 316.5Z" stroke="#2F528F" stroke-width="1.33333" stroke-miterlimit="8" fill="none" fill-rule="evenodd"/><path d="M409.15 398.503C420.746 398.309 430.304 407.553 430.497 419.15 430.498 419.179 430.498 419.208 430.498 419.238L409.5 419.5Z" stroke="#2F528F" stroke-width="1.33333" stroke-miterlimit="8" fill="none" fill-rule="evenodd"/><text font-family="Calibri,Calibri_MSFontService,sans-serif" font-weight="400" font-size="24" transform="translate(438.221 373)">C23<tspan font-size="24" x="37.1667" y="0">9</tspan><tspan font-size="24" x="0" y="-98">C238</tspan><tspan font-size="24" x="-149.889" y="-39">C237</tspan></text><path d="M399 374.5C399 339.43 427.43 311 462.5 311 497.57 311 526 339.43 526 374.5 526 409.57 497.57 438 462.5 438 427.43 438 399 409.57 399 374.5Z" stroke="#FF0000" stroke-width="6" stroke-miterlimit="8" fill="none" fill-rule="evenodd"/></g></svg>